<svg width="18" height="18" viewBox="0 0 18 18" fill="none" xmlns="http://www.w3.org/2000/svg">
<path d="M13.875 6.33333H13.0625V4.80952C13.0625 2.70667 11.2425 1 9 1C6.7575 1 4.9375 2.70667 4.9375 4.80952V6.33333H4.125C3.23125 6.33333 2.5 7.01905 2.5 7.85714V15.4762C2.5 16.3143 3.23125 17 4.125 17H13.875C14.7688 17 15.5 16.3143 15.5 15.4762V7.85714C15.5 7.01905 14.7688 6.33333 13.875 6.33333ZM6.5625 4.80952C6.5625 3.54476 7.65125 2.52381 9 2.52381C10.3488 2.52381 11.4375 3.54476 11.4375 4.80952V6.33333H6.5625V4.80952ZM13.875 15.4762H4.125V7.85714H13.875V15.4762ZM9 13.1905C9.89375 13.1905 10.625 12.5048 10.625 11.6667C10.625 10.8286 9.89375 10.1429 9 10.1429C8.10625 10.1429 7.375 10.8286 7.375 11.6667C7.375 12.5048 8.10625 13.1905 9 13.1905Z" fill="#D1D1D1"/>
</svg>
