<svg width="88" height="60" viewBox="0 0 88 60" fill="none" xmlns="http://www.w3.org/2000/svg">
<g clip-path="url(#clip0_3123_11178)">
<path fill-rule="evenodd" clip-rule="evenodd" d="M13.4206 17C6.00557 17 0 21.5882 0 27.1765C0 30.8235 2.51253 34 6.2507 35.8235L4.96379 40.3529C4.90251 40.4706 4.96379 40.6471 5.08635 40.7647C5.14763 40.8235 5.27019 40.8824 5.33148 40.8824C5.39276 40.8824 5.51532 40.8235 5.5766 40.8235L11.0306 37.2941C11.8273 37.4118 12.624 37.4706 13.4819 37.4706C20.8969 37.4706 26.9025 32.8824 26.9025 27.2941C26.9025 21.5882 20.8969 17 13.4206 17Z" fill="black"/>
<path d="M38.2395 35.6469V42.2352H33.337V17.941H36.7688L37.3816 19.4704C38.4234 18.4704 40.0167 17.4116 42.5292 17.4116C47.3092 17.4116 49.5766 20.8234 49.5766 26.4116C49.5766 32.2352 46.0836 35.941 41.0585 35.941C40.078 35.9999 39.3426 35.941 38.2395 35.6469ZM38.2395 21.8822V32.3528C38.4847 32.4116 39.1588 32.4704 39.8329 32.4704C43.3259 32.4704 44.6741 30.1175 44.6741 26.4116C44.6741 23.1763 43.7549 21.2352 40.9972 21.2352C40.0167 21.2352 39.0362 21.5293 38.2395 21.8822Z" fill="black"/>
<path d="M60.1782 24.8234H62.9359V24.2352C62.9359 22.294 61.7715 21.4116 59.8105 21.4116C58.2785 21.4116 56.3788 21.8234 54.7855 22.5881L53.4373 19.4705C55.1532 18.294 57.8495 17.5293 60.2395 17.5293C64.8969 17.5293 67.4707 19.8822 67.4707 24.4116V35.5293H64.039L63.5487 34.0587C61.5877 35.4116 59.7493 35.9999 58.1559 35.9999C54.6016 35.9999 52.5793 33.9411 52.5793 30.4705C52.5793 26.7646 55.2144 24.8234 60.1782 24.8234ZM62.9359 30.9999V27.7646H60.6685C58.1559 27.7646 56.869 28.6469 56.869 30.3528C56.869 31.6469 57.5431 32.294 59.0139 32.294C60.4234 32.3528 62.1392 31.7058 62.9359 30.9999Z" fill="black"/>
<path d="M82.3008 33.7057C80.5849 38.0586 78.5627 41.2351 75.5599 42.9998L72.5571 40.3528C74.273 38.8822 75.5599 37.4704 76.6017 35.5881L70.1058 18.5881L74.9471 17.3528L79.1142 31.1175L83.22 17.2939L88 18.5881L82.3008 33.7057Z" fill="black"/>
</g>
<defs>
<clipPath id="clip0_3123_11178">
<rect width="88" height="26" fill="white" transform="translate(0 17)"/>
</clipPath>
</defs>
</svg>
