<svg width="50" height="50" viewBox="0 0 50 50" fill="none" xmlns="http://www.w3.org/2000/svg">
<rect x="0.25" y="0.25" width="49.5" height="49.5" rx="24.75" fill="black"/>
<rect x="0.25" y="0.25" width="49.5" height="49.5" rx="24.75" stroke="black" stroke-width="0.5"/>
<g clip-path="url(#clip0_3123_10627)">
<path d="M29.1096 22.1091C30.4326 22.1091 31.5022 23.1182 31.5022 24.4273V27.4819H29.8696V24.4C29.8696 24.0182 29.56 23.6909 29.1378 23.6909C28.7156 23.6909 28.4059 23.9909 28.4059 24.4V27.4546H26.7733V24.4C26.717 23.1182 27.7867 22.1091 29.1096 22.1091Z" fill="white"/>
<path d="M32.2341 22.1091C33.557 22.1091 34.6267 23.1455 34.6267 24.4273V27.4819H32.9941V24.4C32.9941 24.0182 32.6563 23.6909 32.2622 23.6909C32.2341 23.6909 32.2059 23.6909 32.1496 23.6909C32.0089 23.1455 31.7274 22.6546 31.3333 22.2728C31.6148 22.1637 31.9245 22.1091 32.2341 22.1091Z" fill="white"/>
<path d="M37.7511 22.5454H36.1185V27.4818H37.7511V22.5454Z" fill="white"/>
<path d="M41.2978 26.2545V27.9181C40.1437 27.7545 39.243 26.8 39.243 25.6272V22.5454H40.8755V25.6272C40.9037 25.9 41.0726 26.1181 41.2978 26.2545Z" fill="white"/>
<path d="M41.9452 27.8909V26.2545C42.1985 26.1454 42.3393 25.9 42.3393 25.6272V22.5454H44V25.6272C44 26.7727 43.1274 27.7545 41.9452 27.8909Z" fill="white"/>
<path d="M8.39259 22.1091C9.71556 22.1091 10.757 23.1182 10.757 24.4273V27.4819H9.0963V24.4C9.0963 24.0182 8.75852 23.6909 8.36444 23.6909C7.97037 23.7182 7.66074 24.0182 7.66074 24.4V27.4546H6V24.4C6 23.1182 7.06963 22.1091 8.39259 22.1091Z" fill="white"/>
<path d="M11.517 22.1091C12.84 22.1091 13.9096 23.1455 13.9096 24.4273V27.4819H12.2489V24.4C12.2489 24.0182 11.9111 23.6909 11.517 23.6909C11.4889 23.6909 11.4607 23.6909 11.4326 23.6909C11.2919 23.1455 11.0104 22.6546 10.6163 22.2728C10.8978 22.1637 11.2074 22.1091 11.517 22.1091Z" fill="white"/>
<path d="M17.0059 22.5454H15.3733V27.4818H17.0059V22.5454Z" fill="white"/>
<path d="M20.5808 26.2545V27.9181C19.4267 27.7545 18.5259 26.8 18.5259 25.6272V22.5454H20.1585V25.6272C20.1585 25.9 20.3274 26.1181 20.5808 26.2545Z" fill="white"/>
<path d="M21.2281 27.8909V26.2545C21.4533 26.1454 21.6222 25.9 21.6222 25.6272V22.5454H23.2548V25.6272C23.2548 26.7727 22.3822 27.7545 21.2281 27.8909Z" fill="white"/>
</g>
<defs>
<clipPath id="clip0_3123_10627">
<rect width="38" height="6" fill="white" transform="translate(6 22)"/>
</clipPath>
</defs>
</svg>
