<svg width="50" height="50" viewBox="0 0 50 50" fill="none" xmlns="http://www.w3.org/2000/svg">
<path d="M50 25C50 38.8071 38.8071 50 25 50C11.1929 50 0 38.8071 0 25C0 11.1929 11.1929 0 25 0C38.8071 0 50 11.1929 50 25Z" fill="black"/>
<path d="M24.999 13C26.8349 12.9988 28.6465 13.4194 30.2944 14.2292C31.9422 15.0391 33.3822 16.2166 34.5034 17.6712C35.6247 19.1257 36.3972 20.8184 36.7615 22.6188C37.1258 24.4192 37.0722 26.2793 36.6047 28.0556C36.1372 29.832 35.2684 31.4773 34.0651 32.8646C32.8619 34.2521 31.3564 35.3445 29.6647 36.0579C27.9729 36.7713 26.14 37.0867 24.3072 36.9795C22.4745 36.8724 20.6908 36.3457 19.0935 35.4399L14.5841 36.9435C14.4615 36.9823 14.3337 37.0013 14.2051 36.9999C14.0153 36.9998 13.8281 36.9546 13.6591 36.8678C13.49 36.7812 13.344 36.6555 13.233 36.5013C13.1219 36.3471 13.0491 36.1688 13.0204 35.9809C12.9918 35.7931 13.0082 35.6011 13.0682 35.4207L14.5649 30.9088C13.5284 29.0842 12.9887 27.0192 13.0002 24.9204C13.0116 22.8215 13.5736 20.7625 14.6301 18.9493C15.6864 17.1361 17.2002 15.6322 19.0199 14.5882C20.8396 13.5441 22.9014 12.9965 24.999 13ZM17.0199 31.1452L16.1013 33.9051L18.8597 32.9859C19.0281 32.9286 19.207 32.9095 19.3837 32.9303C19.5602 32.951 19.7299 33.011 19.8803 33.1059C21.8806 34.3725 24.2775 34.8567 26.6122 34.4657C28.9469 34.0746 31.0555 32.8358 32.5344 30.9864C34.0133 29.137 34.7587 26.8068 34.6279 24.4419C34.4971 22.077 33.4992 19.8434 31.8254 18.1686C30.1515 16.4938 27.9192 15.4954 25.5556 15.3645C23.192 15.2336 20.8631 15.9794 19.0149 17.4591C17.1665 18.9389 15.9284 21.0487 15.5376 23.3848C15.1467 25.7208 15.6305 28.119 16.8964 30.1204C16.992 30.2712 17.0525 30.4415 17.074 30.6188C17.0954 30.7961 17.0769 30.976 17.0199 31.1452Z" fill="white"/>
<circle cx="20" cy="24.6799" r="1.5" fill="white"/>
<circle cx="25" cy="24.6799" r="1.5" fill="white"/>
<circle cx="30" cy="24.6799" r="1.5" fill="white"/>
</svg>
