<svg width="260" height="153" viewBox="0 0 260 153" fill="none" xmlns="http://www.w3.org/2000/svg">
<ellipse cx="130" cy="132" rx="117" ry="19" fill="#E9E9E9"/>
<path d="M182.819 74.735C182.372 68.9447 178.8 58.5221 168.084 63.1544C154.688 68.9447 176.568 76.5165 182.819 74.735Z" fill="#3A4686"/>
<path d="M70.8878 41.2802C67.6229 28.4566 70.2744 1.03336 85 4.78007C99.7256 8.52679 102.636 31.5788 105 41.2802" stroke="#333333" stroke-width="2"/>
<path d="M185.819 74.735C186.289 68.9447 190.049 58.5221 201.33 63.1544C215.43 68.9447 192.399 76.5165 185.819 74.735Z" fill="#3A4686"/>
<path d="M53 33.2803H132.33L143 137.28H53V33.2803Z" fill="black"/>
<path d="M182.819 74.7717C178.129 70.1434 167.727 61.9445 163.635 66.1762C158.519 71.4658 178.982 76.0942 182.819 74.7717Z" fill="#1B1C41"/>
<path d="M47.5 130.78H38L53 31.2803V137.28L47.5 130.78Z" fill="#4A4A4A"/>
<path d="M185.819 74.7717C190.743 70.1434 201.665 61.9445 205.962 66.1762C211.334 71.4658 189.848 76.0942 185.819 74.7717Z" fill="#1B1C41"/>
<rect x="145" y="73.2803" width="77" height="9" fill="#2A3671"/>
<path d="M103.489 82C105.578 82 107.267 83.613 107.267 85.7056V90.5882H104.689V85.662C104.689 85.0517 104.2 84.5285 103.533 84.5285C102.867 84.5285 102.378 85.0081 102.378 85.662V90.5446H99.8V85.662C99.7111 83.613 101.4 82 103.489 82Z" fill="white"/>
<path d="M108.422 82C110.511 82 112.2 83.6566 112.2 85.7056V90.5882H109.622V85.662C109.622 85.0517 109.089 84.5285 108.467 84.5285C108.422 84.5285 108.378 84.5285 108.289 84.5285C108.067 83.6566 107.622 82.8719 107 82.2616C107.444 82.0872 107.933 82 108.422 82Z" fill="white"/>
<path d="M117.133 82.6975H114.556V90.5882H117.133V82.6975Z" fill="white"/>
<path d="M122.733 88.6264V91.2857C120.911 91.0241 119.489 89.4983 119.489 87.6237V82.6975H122.067V87.6237C122.111 88.0597 122.378 88.4084 122.733 88.6264Z" fill="white"/>
<path d="M123.756 91.2421V88.6264C124.156 88.452 124.378 88.0597 124.378 87.6237V82.6975H127V87.6237C127 89.4547 125.622 91.0241 123.756 91.2421Z" fill="white"/>
<path d="M70.7778 82C72.8667 82 74.5111 83.613 74.5111 85.7056V90.5882H71.8889V85.662C71.8889 85.0517 71.3556 84.5285 70.7333 84.5285C70.1111 84.5721 69.6222 85.0517 69.6222 85.662V90.5446H67V85.662C67 83.613 68.6889 82 70.7778 82Z" fill="white"/>
<path d="M75.7111 82C77.8 82 79.4889 83.6566 79.4889 85.7056V90.5882H76.8666V85.662C76.8666 85.0517 76.3333 84.5285 75.7111 84.5285C75.6666 84.5285 75.6222 84.5285 75.5778 84.5285C75.3555 83.6566 74.9111 82.8719 74.2889 82.2616C74.7333 82.0872 75.2222 82 75.7111 82Z" fill="white"/>
<path d="M84.3778 82.6975H81.8V90.5882H84.3778V82.6975Z" fill="white"/>
<path d="M90.0222 88.6264V91.2857C88.2 91.0241 86.7778 89.4983 86.7778 87.6237V82.6975H89.3556V87.6237C89.3556 88.0597 89.6222 88.4084 90.0222 88.6264Z" fill="white"/>
<path d="M91.0444 91.2421V88.6264C91.4 88.452 91.6667 88.0597 91.6667 87.6237V82.6975H94.2444V87.6237C94.2444 89.4547 92.8667 91.0241 91.0444 91.2421Z" fill="white"/>
<rect x="148" y="82.2803" width="72" height="53" fill="#2A3671"/>
<path d="M78.3017 41.9079C75.1707 29.606 77.8777 -2.31388 91.9997 1.28043C106.122 4.87474 109.732 32.9737 112 42.2804" stroke="#333333" stroke-width="2"/>
<circle cx="184.319" cy="74.5" r="4.5" fill="#2A2B4C"/>
<rect x="148" y="82.2803" width="72" height="5" fill="#18183A"/>
<circle cx="78" cy="43.2803" r="2.5" fill="#333333" stroke="#333333"/>
<rect x="178" y="73.2803" width="12" height="9" fill="white"/>
<circle cx="112" cy="43.2803" r="2.5" fill="#333333" stroke="#333333"/>
<rect x="179" y="87.2803" width="10" height="48" fill="white"/>
<path d="M151.638 94.7961C151.285 90.342 148.465 82.3247 140.005 85.888C129.429 90.342 146.702 96.1666 151.638 94.7961Z" fill="#7B7B7B"/>
<path d="M154 94.7961C154.353 90.342 157.173 82.3247 165.633 85.888C176.209 90.342 158.935 96.1666 154 94.7961Z" fill="#7B7B7B"/>
<path d="M151.638 94.9998C147.971 91.4998 139.838 85.2998 136.638 88.4998C132.638 92.4998 148.638 95.9998 151.638 94.9998Z" fill="#2F0606"/>
<path d="M154 94.9998C157.666 91.4998 165.8 85.2998 169 88.4998C173 92.4998 157 95.9998 154 94.9998Z" fill="#2F0606"/>
<rect x="122" y="94.2803" width="61" height="7" fill="#7B7B7B"/>
<rect x="179" y="82.2803" width="10" height="5" fill="#B5B5B5"/>
<rect x="125" y="101.28" width="56" height="41" fill="#7B7B7B"/>
<circle cx="152.5" cy="94.5" r="3.5" fill="#A7A7A7"/>
<rect x="125" y="101.28" width="56" height="4" fill="#464646"/>
<rect x="148" y="94.2803" width="10" height="7" fill="white"/>
<rect x="149" y="102.28" width="8" height="40" fill="white"/>
<rect x="149" y="101.28" width="8" height="4" fill="#B5B5B5"/>
</svg>
