<svg width="30" height="30" viewBox="0 0 30 30" fill="none" xmlns="http://www.w3.org/2000/svg">
<path d="M21.2002 5.70215C21.9232 5.72143 22.6349 5.8867 23.291 6.1875C23.9473 6.48835 24.5351 6.9183 25.0176 7.45117L25.0186 7.45215C26.9135 9.53962 26.6553 12.8732 24.5801 14.9316L15.2002 24.2344C15.1584 24.2758 15.1 24.2998 15.0381 24.2998C14.9762 24.2998 14.9178 24.2758 14.876 24.2344L5.25586 14.6934C4.74519 14.1869 4.3442 13.5825 4.07715 12.918C3.81022 12.2537 3.68284 11.5426 3.70215 10.8281C3.72153 10.1134 3.88772 9.40917 4.19043 8.75977C4.49311 8.11053 4.92556 7.5283 5.46289 7.0498H5.46387C7.57375 5.1656 10.9458 5.42395 13.0234 7.48438L14.5449 8.99414C14.8178 9.26471 15.2584 9.26466 15.5312 8.99414L17.2939 7.24512C17.8046 6.73876 18.4144 6.34068 19.0859 6.0752C19.7575 5.80975 20.4771 5.68292 21.2002 5.70215Z" stroke="#333333" stroke-width="1.4" stroke-linecap="round" stroke-linejoin="round"/>
</svg>
